<svg width="19" height="27" viewBox="0 0 19 27" fill="none" xmlns="http://www.w3.org/2000/svg">
<path d="M9.4583 19.7691C10.955 19.7691 12.2365 19.2316 13.3027 18.1559C14.3689 17.0802 14.9016 15.788 14.9016 14.2773V5.49116C14.9016 3.98111 14.3689 2.68824 13.3027 1.61256C12.2365 0.53752 10.955 0 9.4583 0C7.96158 0 6.68012 0.53752 5.61393 1.6132C4.54774 2.68888 4.0156 3.98111 4.0156 5.49116V14.2773C4.0156 15.7873 4.54838 17.0802 5.61456 18.1559C6.68012 19.2316 7.96158 19.7691 9.4583 19.7691Z" fill="#1CCFF6"/>
<path d="M16.7876 16.4274C16.4434 17.6562 15.7894 18.7588 14.8184 19.7339C13.396 21.1619 11.437 21.973 9.42969 21.9659C7.34431 21.9589 5.55674 21.2099 4.067 19.7178C3.11384 18.7491 2.47057 17.6536 2.13084 16.4344C2.00003 15.9654 1.57647 15.6419 1.09323 15.6419H1.08561C0.356611 15.6419 -0.15521 16.3498 0.0429145 17.0571C0.435353 18.4557 1.13895 19.7326 2.16196 20.8845C3.8403 22.7495 5.90981 23.8187 8.37049 24.0936V25.8426C8.37049 26.3897 8.74134 26.8965 9.27602 26.9849C9.95802 27.097 10.5473 26.5685 10.5473 25.9016V24.0942C12.9693 23.8239 15.0064 22.7834 16.6593 20.9729C17.716 19.8152 18.4526 18.5012 18.8628 17.0648C19.0654 16.355 18.5548 15.6426 17.8227 15.6426C17.3432 15.6419 16.9184 15.961 16.7876 16.4274Z" fill="#1CCFF6"/>
</svg>
